<svg xmlns="http://www.w3.org/2000/svg" version="1.1" xmlns:xlink="http://www.w3.org/1999/xlink" width="512" height="512" x="0" y="0" viewBox="0 0 192 192" style="enable-background:new 0 0 512 512" xml:space="preserve" class=""><g><linearGradient id="a" x1="73.958" x2="124.036" y1="146.466" y2="96.388" gradientUnits="userSpaceOnUse"><stop offset="0" stop-color="#ff85a6"></stop><stop offset="1" stop-color="#d0b3e4"></stop></linearGradient><g data-name="04-hat"><path fill="#ff85a6" d="M155.54 121.945C139.507 115.532 118.362 112 96 112s-43.507 3.532-59.54 9.945C18.107 129.286 8 139.959 8 152s10.107 22.714 28.46 30.055C52.493 188.468 73.638 192 96 192s43.507-3.532 59.54-9.945C173.893 174.714 184 164.041 184 152s-10.107-22.714-28.46-30.055z" opacity="1" data-original="#ff85a6" class=""></path><path fill="#ffe7ed" d="m151.59 149.47-14.952-44.856 6.517-13.036a8 8 0 0 0-1.5-9.235L128 68.687v-10.02L150.4 28.8a8 8 0 0 0-9.978-11.955l-48 24a8 8 0 0 0-4.012 4.625l-8 24A8.027 8.027 0 0 0 80 72v12.687L66.343 98.343a7.986 7.986 0 0 0-1.5 2.079l-24 48a8 8 0 0 0 4.625 11.167C46.5 159.933 70.989 168 96 168s49.5-8.067 50.53-8.411a8 8 0 0 0 5.06-10.119z" opacity="1" data-original="#ffe7ed" class=""></path><path fill="#ffcedb" d="m55.845 156.422 24-48a7.986 7.986 0 0 1 1.5-2.079L95 92.687V80a8.027 8.027 0 0 1 .41-2.53l8-24a8 8 0 0 1 4.012-4.625l44.036-22.018a7.98 7.98 0 0 0-11.036-9.982l-48 24a8 8 0 0 0-4.012 4.625l-8 24A8.027 8.027 0 0 0 80 72v12.687L66.343 98.343a7.986 7.986 0 0 0-1.5 2.079l-24 48a8 8 0 0 0 4.625 11.167c.388.13 4.1 1.354 9.913 2.829a7.99 7.99 0 0 1 .464-5.996z" opacity="1" data-original="#ffcedb" class=""></path><path fill="url(#a)" d="M52.535 125.042C61.351 130.142 75.853 136 96 136c22.391 0 38.008-4.811 47.93-9.508l-5.1-15.314C131.147 115.119 117.334 120 96 120c-17.664 0-29.7-5.254-36.314-9.26z" opacity="1" data-original="url(#a)" class=""></path><path fill="#ffb6ca" d="M82.13 20.087a2 2 0 0 0-2-2A14.246 14.246 0 0 1 66 3.761a2 2 0 1 0-4 0 14.246 14.246 0 0 1-14.13 14.326 2 2 0 0 0 0 4A14.246 14.246 0 0 1 62 36.413a2 2 0 0 0 4 0 14.246 14.246 0 0 1 14.13-14.326 2 2 0 0 0 2-2zM191.13 82.087a2 2 0 0 0-2-2A14.246 14.246 0 0 1 175 65.761a2 2 0 0 0-4 0 14.246 14.246 0 0 1-14.13 14.326 2 2 0 0 0 0 4A14.246 14.246 0 0 1 171 98.413a2 2 0 1 0 4 0 14.246 14.246 0 0 1 14.13-14.326 2 2 0 0 0 2-2z" opacity="1" data-original="#ffb6ca" class=""></path><path fill="#ffcedb" d="M47.13 84.087a2 2 0 0 0-2-2A14.246 14.246 0 0 1 31 67.761a2 2 0 0 0-4 0 14.246 14.246 0 0 1-14.13 14.326 2 2 0 0 0 0 4A14.246 14.246 0 0 1 27 100.413a2 2 0 1 0 4 0 14.246 14.246 0 0 1 14.13-14.326 2 2 0 0 0 2-2z" opacity="1" data-original="#ffcedb" class=""></path></g></g></svg>